<mxfile host="app.diagrams.net" agent="Mozilla/5.0 (Windows NT 10.0; Win64; x64) AppleWebKit/537.36 (KHTML, like Gecko) Chrome/131.0.0.0 Safari/537.36" version="26.0.5">
  <diagram name="Page-1" id="6133507b-19e7-1e82-6fc7-422aa6c4b21f">
    <mxGraphModel dx="1311" dy="501" grid="1" gridSize="10" guides="1" tooltips="1" connect="1" arrows="1" fold="1" page="1" pageScale="1" pageWidth="1100" pageHeight="850" background="none" math="0" shadow="0">
      <root>
        <mxCell id="0" />
        <mxCell id="1" parent="0" />
        <mxCell id="4Ya6MQj-gc4yKTbIKFqB-1" value="" style="rounded=1;whiteSpace=wrap;html=1;" vertex="1" parent="1">
          <mxGeometry x="120" y="237.5" width="180" height="200" as="geometry" />
        </mxCell>
        <mxCell id="4Ya6MQj-gc4yKTbIKFqB-2" value="" style="endArrow=none;html=1;rounded=0;entryX=1;entryY=0.211;entryDx=0;entryDy=0;entryPerimeter=0;" edge="1" parent="1" target="4Ya6MQj-gc4yKTbIKFqB-1">
          <mxGeometry width="50" height="50" relative="1" as="geometry">
            <mxPoint x="120" y="277.5" as="sourcePoint" />
            <mxPoint x="170" y="227.5" as="targetPoint" />
          </mxGeometry>
        </mxCell>
        <mxCell id="4Ya6MQj-gc4yKTbIKFqB-3" value="" style="endArrow=none;html=1;rounded=0;entryX=1;entryY=0.6;entryDx=0;entryDy=0;entryPerimeter=0;" edge="1" parent="1" target="4Ya6MQj-gc4yKTbIKFqB-1">
          <mxGeometry width="50" height="50" relative="1" as="geometry">
            <mxPoint x="120" y="357.5" as="sourcePoint" />
            <mxPoint x="240" y="357.5" as="targetPoint" />
          </mxGeometry>
        </mxCell>
        <mxCell id="4Ya6MQj-gc4yKTbIKFqB-4" value="" style="endArrow=none;html=1;rounded=0;entryX=1;entryY=0.795;entryDx=0;entryDy=0;entryPerimeter=0;" edge="1" parent="1" target="4Ya6MQj-gc4yKTbIKFqB-1">
          <mxGeometry width="50" height="50" relative="1" as="geometry">
            <mxPoint x="120" y="397.5" as="sourcePoint" />
            <mxPoint x="240" y="397.5" as="targetPoint" />
          </mxGeometry>
        </mxCell>
        <mxCell id="4Ya6MQj-gc4yKTbIKFqB-5" value="" style="endArrow=none;html=1;rounded=0;" edge="1" parent="1">
          <mxGeometry width="50" height="50" relative="1" as="geometry">
            <mxPoint x="120" y="317.5" as="sourcePoint" />
            <mxPoint x="300" y="317.5" as="targetPoint" />
          </mxGeometry>
        </mxCell>
        <mxCell id="4Ya6MQj-gc4yKTbIKFqB-6" value="person" style="text;html=1;align=center;verticalAlign=middle;whiteSpace=wrap;rounded=0;" vertex="1" parent="1">
          <mxGeometry x="165" y="243.5" width="90" height="30" as="geometry" />
        </mxCell>
        <mxCell id="4Ya6MQj-gc4yKTbIKFqB-7" value="username VARCHAR" style="text;html=1;align=center;verticalAlign=middle;whiteSpace=wrap;rounded=0;" vertex="1" parent="1">
          <mxGeometry x="173" y="322.5" width="120" height="30" as="geometry" />
        </mxCell>
        <mxCell id="4Ya6MQj-gc4yKTbIKFqB-8" value="password VARCHAR" style="text;html=1;align=center;verticalAlign=middle;whiteSpace=wrap;rounded=0;" vertex="1" parent="1">
          <mxGeometry x="159" y="367.5" width="140" height="20" as="geometry" />
        </mxCell>
        <mxCell id="4Ya6MQj-gc4yKTbIKFqB-9" value="role VARCHAR" style="text;html=1;align=center;verticalAlign=middle;whiteSpace=wrap;rounded=0;" vertex="1" parent="1">
          <mxGeometry x="153" y="405.5" width="120" height="25" as="geometry" />
        </mxCell>
        <mxCell id="4Ya6MQj-gc4yKTbIKFqB-10" value="id INT&amp;nbsp;" style="text;html=1;align=center;verticalAlign=middle;whiteSpace=wrap;rounded=0;" vertex="1" parent="1">
          <mxGeometry x="165" y="282.5" width="60" height="30" as="geometry" />
        </mxCell>
        <mxCell id="4Ya6MQj-gc4yKTbIKFqB-11" value="" style="image;sketch=0;aspect=fixed;html=1;points=[];align=center;fontSize=12;image=img/lib/mscae/Key.svg;" vertex="1" parent="1">
          <mxGeometry x="133.79999999999998" y="287.5" width="12.4" height="20" as="geometry" />
        </mxCell>
        <mxCell id="4Ya6MQj-gc4yKTbIKFqB-12" style="edgeStyle=orthogonalEdgeStyle;rounded=0;orthogonalLoop=1;jettySize=auto;html=1;exitX=0.5;exitY=1;exitDx=0;exitDy=0;" edge="1" parent="1" source="4Ya6MQj-gc4yKTbIKFqB-8" target="4Ya6MQj-gc4yKTbIKFqB-8">
          <mxGeometry relative="1" as="geometry" />
        </mxCell>
        <mxCell id="4Ya6MQj-gc4yKTbIKFqB-13" value="" style="shape=image;html=1;verticalAlign=top;verticalLabelPosition=bottom;labelBackgroundColor=#ffffff;imageAspect=0;aspect=fixed;image=https://cdn1.iconfinder.com/data/icons/unicons-line-vol-2/24/diamond-128.png" vertex="1" parent="1">
          <mxGeometry x="130" y="327.5" width="20" height="20" as="geometry" />
        </mxCell>
        <mxCell id="4Ya6MQj-gc4yKTbIKFqB-15" value="" style="shape=image;html=1;verticalAlign=top;verticalLabelPosition=bottom;labelBackgroundColor=#ffffff;imageAspect=0;aspect=fixed;image=https://cdn1.iconfinder.com/data/icons/unicons-line-vol-2/24/diamond-128.png" vertex="1" parent="1">
          <mxGeometry x="130" y="367.5" width="20" height="20" as="geometry" />
        </mxCell>
        <mxCell id="4Ya6MQj-gc4yKTbIKFqB-16" value="" style="shape=image;html=1;verticalAlign=top;verticalLabelPosition=bottom;labelBackgroundColor=#ffffff;imageAspect=0;aspect=fixed;image=https://cdn1.iconfinder.com/data/icons/unicons-line-vol-2/24/diamond-128.png" vertex="1" parent="1">
          <mxGeometry x="130" y="402.5" width="20" height="20" as="geometry" />
        </mxCell>
        <mxCell id="4Ya6MQj-gc4yKTbIKFqB-17" value="" style="endArrow=none;html=1;rounded=0;exitX=0.217;exitY=1;exitDx=0;exitDy=0;exitPerimeter=0;" edge="1" parent="1" source="4Ya6MQj-gc4yKTbIKFqB-1">
          <mxGeometry width="50" height="50" relative="1" as="geometry">
            <mxPoint x="110" y="287.5" as="sourcePoint" />
            <mxPoint x="160" y="277.5" as="targetPoint" />
          </mxGeometry>
        </mxCell>
        <mxCell id="4Ya6MQj-gc4yKTbIKFqB-18" value="" style="rounded=1;whiteSpace=wrap;html=1;" vertex="1" parent="1">
          <mxGeometry x="400" y="160" width="180" height="200" as="geometry" />
        </mxCell>
        <mxCell id="4Ya6MQj-gc4yKTbIKFqB-19" value="" style="endArrow=none;html=1;rounded=0;entryX=1;entryY=0.211;entryDx=0;entryDy=0;entryPerimeter=0;" edge="1" parent="1" target="4Ya6MQj-gc4yKTbIKFqB-18">
          <mxGeometry width="50" height="50" relative="1" as="geometry">
            <mxPoint x="400" y="200" as="sourcePoint" />
            <mxPoint x="450" y="150" as="targetPoint" />
          </mxGeometry>
        </mxCell>
        <mxCell id="4Ya6MQj-gc4yKTbIKFqB-20" value="" style="endArrow=none;html=1;rounded=0;entryX=1;entryY=0.6;entryDx=0;entryDy=0;entryPerimeter=0;" edge="1" parent="1" target="4Ya6MQj-gc4yKTbIKFqB-18">
          <mxGeometry width="50" height="50" relative="1" as="geometry">
            <mxPoint x="400" y="280" as="sourcePoint" />
            <mxPoint x="520" y="280" as="targetPoint" />
          </mxGeometry>
        </mxCell>
        <mxCell id="4Ya6MQj-gc4yKTbIKFqB-21" value="" style="endArrow=none;html=1;rounded=0;entryX=1;entryY=0.795;entryDx=0;entryDy=0;entryPerimeter=0;" edge="1" parent="1" target="4Ya6MQj-gc4yKTbIKFqB-18">
          <mxGeometry width="50" height="50" relative="1" as="geometry">
            <mxPoint x="400" y="320" as="sourcePoint" />
            <mxPoint x="520" y="320" as="targetPoint" />
          </mxGeometry>
        </mxCell>
        <mxCell id="4Ya6MQj-gc4yKTbIKFqB-22" value="" style="endArrow=none;html=1;rounded=0;" edge="1" parent="1">
          <mxGeometry width="50" height="50" relative="1" as="geometry">
            <mxPoint x="400" y="240" as="sourcePoint" />
            <mxPoint x="580" y="240" as="targetPoint" />
          </mxGeometry>
        </mxCell>
        <mxCell id="4Ya6MQj-gc4yKTbIKFqB-23" value="farm" style="text;html=1;align=center;verticalAlign=middle;whiteSpace=wrap;rounded=0;" vertex="1" parent="1">
          <mxGeometry x="445" y="166" width="90" height="30" as="geometry" />
        </mxCell>
        <mxCell id="4Ya6MQj-gc4yKTbIKFqB-24" value="name VARCHAR" style="text;html=1;align=center;verticalAlign=middle;whiteSpace=wrap;rounded=0;" vertex="1" parent="1">
          <mxGeometry x="442" y="246" width="115" height="30" as="geometry" />
        </mxCell>
        <mxCell id="4Ya6MQj-gc4yKTbIKFqB-25" value="size DOUBLE" style="text;html=1;align=center;verticalAlign=middle;whiteSpace=wrap;rounded=0;" vertex="1" parent="1">
          <mxGeometry x="436" y="290" width="110" height="20" as="geometry" />
        </mxCell>
        <mxCell id="4Ya6MQj-gc4yKTbIKFqB-26" value="person_id INT" style="text;html=1;align=center;verticalAlign=middle;whiteSpace=wrap;rounded=0;" vertex="1" parent="1">
          <mxGeometry x="447.5" y="325" width="85" height="30" as="geometry" />
        </mxCell>
        <mxCell id="4Ya6MQj-gc4yKTbIKFqB-27" value="id INT&amp;nbsp;" style="text;html=1;align=center;verticalAlign=middle;whiteSpace=wrap;rounded=0;" vertex="1" parent="1">
          <mxGeometry x="445.5" y="208" width="60" height="25" as="geometry" />
        </mxCell>
        <mxCell id="4Ya6MQj-gc4yKTbIKFqB-28" value="" style="image;sketch=0;aspect=fixed;html=1;points=[];align=center;fontSize=12;image=img/lib/mscae/Key.svg;" vertex="1" parent="1">
          <mxGeometry x="413.79999999999995" y="210" width="12.4" height="20" as="geometry" />
        </mxCell>
        <mxCell id="4Ya6MQj-gc4yKTbIKFqB-29" style="edgeStyle=orthogonalEdgeStyle;rounded=0;orthogonalLoop=1;jettySize=auto;html=1;exitX=0.5;exitY=1;exitDx=0;exitDy=0;" edge="1" parent="1" source="4Ya6MQj-gc4yKTbIKFqB-25" target="4Ya6MQj-gc4yKTbIKFqB-25">
          <mxGeometry relative="1" as="geometry" />
        </mxCell>
        <mxCell id="4Ya6MQj-gc4yKTbIKFqB-30" value="" style="shape=image;html=1;verticalAlign=top;verticalLabelPosition=bottom;labelBackgroundColor=#ffffff;imageAspect=0;aspect=fixed;image=https://cdn1.iconfinder.com/data/icons/unicons-line-vol-2/24/diamond-128.png" vertex="1" parent="1">
          <mxGeometry x="410" y="250" width="20" height="20" as="geometry" />
        </mxCell>
        <mxCell id="4Ya6MQj-gc4yKTbIKFqB-31" value="" style="shape=image;html=1;verticalAlign=top;verticalLabelPosition=bottom;labelBackgroundColor=#ffffff;imageAspect=0;aspect=fixed;image=https://cdn1.iconfinder.com/data/icons/unicons-line-vol-2/24/diamond-128.png" vertex="1" parent="1">
          <mxGeometry x="410" y="290" width="20" height="20" as="geometry" />
        </mxCell>
        <mxCell id="4Ya6MQj-gc4yKTbIKFqB-33" value="" style="endArrow=none;html=1;rounded=0;exitX=0.217;exitY=1;exitDx=0;exitDy=0;exitPerimeter=0;" edge="1" parent="1" source="4Ya6MQj-gc4yKTbIKFqB-18">
          <mxGeometry width="50" height="50" relative="1" as="geometry">
            <mxPoint x="390" y="210" as="sourcePoint" />
            <mxPoint x="440" y="200" as="targetPoint" />
          </mxGeometry>
        </mxCell>
        <mxCell id="4Ya6MQj-gc4yKTbIKFqB-51" value="" style="rounded=1;whiteSpace=wrap;html=1;" vertex="1" parent="1">
          <mxGeometry x="680" y="160" width="190" height="280" as="geometry" />
        </mxCell>
        <mxCell id="4Ya6MQj-gc4yKTbIKFqB-52" value="" style="endArrow=none;html=1;rounded=0;entryX=1;entryY=0.143;entryDx=0;entryDy=0;entryPerimeter=0;" edge="1" parent="1" target="4Ya6MQj-gc4yKTbIKFqB-51">
          <mxGeometry width="50" height="50" relative="1" as="geometry">
            <mxPoint x="680" y="200" as="sourcePoint" />
            <mxPoint x="730" y="150" as="targetPoint" />
          </mxGeometry>
        </mxCell>
        <mxCell id="4Ya6MQj-gc4yKTbIKFqB-53" value="" style="endArrow=none;html=1;rounded=0;entryX=1;entryY=0.432;entryDx=0;entryDy=0;entryPerimeter=0;" edge="1" parent="1" target="4Ya6MQj-gc4yKTbIKFqB-51">
          <mxGeometry width="50" height="50" relative="1" as="geometry">
            <mxPoint x="680" y="280" as="sourcePoint" />
            <mxPoint x="800" y="280" as="targetPoint" />
          </mxGeometry>
        </mxCell>
        <mxCell id="4Ya6MQj-gc4yKTbIKFqB-54" value="" style="endArrow=none;html=1;rounded=0;entryX=1;entryY=0.568;entryDx=0;entryDy=0;entryPerimeter=0;" edge="1" parent="1" target="4Ya6MQj-gc4yKTbIKFqB-51">
          <mxGeometry width="50" height="50" relative="1" as="geometry">
            <mxPoint x="680" y="320" as="sourcePoint" />
            <mxPoint x="800" y="320" as="targetPoint" />
          </mxGeometry>
        </mxCell>
        <mxCell id="4Ya6MQj-gc4yKTbIKFqB-55" value="" style="endArrow=none;html=1;rounded=0;entryX=1.002;entryY=0.287;entryDx=0;entryDy=0;entryPerimeter=0;" edge="1" parent="1" target="4Ya6MQj-gc4yKTbIKFqB-51">
          <mxGeometry width="50" height="50" relative="1" as="geometry">
            <mxPoint x="680" y="240" as="sourcePoint" />
            <mxPoint x="860" y="240" as="targetPoint" />
          </mxGeometry>
        </mxCell>
        <mxCell id="4Ya6MQj-gc4yKTbIKFqB-56" value="crop" style="text;html=1;align=center;verticalAlign=middle;whiteSpace=wrap;rounded=0;" vertex="1" parent="1">
          <mxGeometry x="728" y="165" width="90" height="30" as="geometry" />
        </mxCell>
        <mxCell id="4Ya6MQj-gc4yKTbIKFqB-57" value="farm_id INT" style="text;html=1;align=center;verticalAlign=middle;whiteSpace=wrap;rounded=0;" vertex="1" parent="1">
          <mxGeometry x="734" y="245" width="65" height="30" as="geometry" />
        </mxCell>
        <mxCell id="4Ya6MQj-gc4yKTbIKFqB-58" value="name VARCHAR" style="text;html=1;align=center;verticalAlign=middle;whiteSpace=wrap;rounded=0;" vertex="1" parent="1">
          <mxGeometry x="732" y="290" width="95" height="20" as="geometry" />
        </mxCell>
        <mxCell id="4Ya6MQj-gc4yKTbIKFqB-59" value="planted_area DOUBLE" style="text;html=1;align=center;verticalAlign=middle;whiteSpace=wrap;rounded=0;" vertex="1" parent="1">
          <mxGeometry x="729" y="327" width="135" height="25" as="geometry" />
        </mxCell>
        <mxCell id="4Ya6MQj-gc4yKTbIKFqB-60" value="id INT&amp;nbsp;" style="text;html=1;align=center;verticalAlign=middle;whiteSpace=wrap;rounded=0;" vertex="1" parent="1">
          <mxGeometry x="734" y="205" width="40.4" height="30" as="geometry" />
        </mxCell>
        <mxCell id="4Ya6MQj-gc4yKTbIKFqB-61" value="" style="image;sketch=0;aspect=fixed;html=1;points=[];align=center;fontSize=12;image=img/lib/mscae/Key.svg;" vertex="1" parent="1">
          <mxGeometry x="693.8" y="210" width="12.4" height="20" as="geometry" />
        </mxCell>
        <mxCell id="4Ya6MQj-gc4yKTbIKFqB-62" style="edgeStyle=orthogonalEdgeStyle;rounded=0;orthogonalLoop=1;jettySize=auto;html=1;exitX=0.5;exitY=1;exitDx=0;exitDy=0;" edge="1" parent="1" source="4Ya6MQj-gc4yKTbIKFqB-58" target="4Ya6MQj-gc4yKTbIKFqB-58">
          <mxGeometry relative="1" as="geometry" />
        </mxCell>
        <mxCell id="4Ya6MQj-gc4yKTbIKFqB-64" value="" style="shape=image;html=1;verticalAlign=top;verticalLabelPosition=bottom;labelBackgroundColor=#ffffff;imageAspect=0;aspect=fixed;image=https://cdn1.iconfinder.com/data/icons/unicons-line-vol-2/24/diamond-128.png" vertex="1" parent="1">
          <mxGeometry x="690" y="290" width="20" height="20" as="geometry" />
        </mxCell>
        <mxCell id="4Ya6MQj-gc4yKTbIKFqB-65" value="" style="shape=image;html=1;verticalAlign=top;verticalLabelPosition=bottom;labelBackgroundColor=#ffffff;imageAspect=0;aspect=fixed;image=https://cdn1.iconfinder.com/data/icons/unicons-line-vol-2/24/diamond-128.png" vertex="1" parent="1">
          <mxGeometry x="690" y="330" width="20" height="20" as="geometry" />
        </mxCell>
        <mxCell id="4Ya6MQj-gc4yKTbIKFqB-66" value="" style="endArrow=none;html=1;rounded=0;exitX=0.217;exitY=1;exitDx=0;exitDy=0;exitPerimeter=0;" edge="1" parent="1" source="4Ya6MQj-gc4yKTbIKFqB-51">
          <mxGeometry width="50" height="50" relative="1" as="geometry">
            <mxPoint x="670" y="210" as="sourcePoint" />
            <mxPoint x="720" y="200" as="targetPoint" />
          </mxGeometry>
        </mxCell>
        <mxCell id="4Ya6MQj-gc4yKTbIKFqB-67" value="" style="rounded=1;whiteSpace=wrap;html=1;" vertex="1" parent="1">
          <mxGeometry x="400" y="440" width="180" height="200" as="geometry" />
        </mxCell>
        <mxCell id="4Ya6MQj-gc4yKTbIKFqB-68" value="" style="endArrow=none;html=1;rounded=0;entryX=1;entryY=0.211;entryDx=0;entryDy=0;entryPerimeter=0;" edge="1" parent="1" target="4Ya6MQj-gc4yKTbIKFqB-67">
          <mxGeometry width="50" height="50" relative="1" as="geometry">
            <mxPoint x="400" y="480" as="sourcePoint" />
            <mxPoint x="450" y="430" as="targetPoint" />
          </mxGeometry>
        </mxCell>
        <mxCell id="4Ya6MQj-gc4yKTbIKFqB-69" value="" style="endArrow=none;html=1;rounded=0;entryX=1;entryY=0.6;entryDx=0;entryDy=0;entryPerimeter=0;" edge="1" parent="1" target="4Ya6MQj-gc4yKTbIKFqB-67">
          <mxGeometry width="50" height="50" relative="1" as="geometry">
            <mxPoint x="400" y="560" as="sourcePoint" />
            <mxPoint x="520" y="560" as="targetPoint" />
          </mxGeometry>
        </mxCell>
        <mxCell id="4Ya6MQj-gc4yKTbIKFqB-70" value="" style="endArrow=none;html=1;rounded=0;entryX=1;entryY=0.795;entryDx=0;entryDy=0;entryPerimeter=0;" edge="1" parent="1" target="4Ya6MQj-gc4yKTbIKFqB-67">
          <mxGeometry width="50" height="50" relative="1" as="geometry">
            <mxPoint x="400" y="600" as="sourcePoint" />
            <mxPoint x="520" y="600" as="targetPoint" />
          </mxGeometry>
        </mxCell>
        <mxCell id="4Ya6MQj-gc4yKTbIKFqB-71" value="" style="endArrow=none;html=1;rounded=0;" edge="1" parent="1">
          <mxGeometry width="50" height="50" relative="1" as="geometry">
            <mxPoint x="400" y="520" as="sourcePoint" />
            <mxPoint x="580" y="520" as="targetPoint" />
          </mxGeometry>
        </mxCell>
        <mxCell id="4Ya6MQj-gc4yKTbIKFqB-72" value="fertilizer" style="text;html=1;align=center;verticalAlign=middle;whiteSpace=wrap;rounded=0;" vertex="1" parent="1">
          <mxGeometry x="445" y="446" width="90" height="30" as="geometry" />
        </mxCell>
        <mxCell id="4Ya6MQj-gc4yKTbIKFqB-73" value="name VARCHAR" style="text;html=1;align=center;verticalAlign=middle;whiteSpace=wrap;rounded=0;" vertex="1" parent="1">
          <mxGeometry x="442" y="525" width="105" height="30" as="geometry" />
        </mxCell>
        <mxCell id="4Ya6MQj-gc4yKTbIKFqB-74" value="brand VARCHAR" style="text;html=1;align=center;verticalAlign=middle;whiteSpace=wrap;rounded=0;" vertex="1" parent="1">
          <mxGeometry x="441" y="571" width="110" height="20" as="geometry" />
        </mxCell>
        <mxCell id="4Ya6MQj-gc4yKTbIKFqB-75" value="composition VARCHAR" style="text;html=1;align=center;verticalAlign=middle;whiteSpace=wrap;rounded=0;" vertex="1" parent="1">
          <mxGeometry x="446" y="605" width="130" height="30" as="geometry" />
        </mxCell>
        <mxCell id="4Ya6MQj-gc4yKTbIKFqB-76" value="id INT&amp;nbsp;" style="text;html=1;align=center;verticalAlign=middle;whiteSpace=wrap;rounded=0;" vertex="1" parent="1">
          <mxGeometry x="440" y="485" width="60" height="30" as="geometry" />
        </mxCell>
        <mxCell id="4Ya6MQj-gc4yKTbIKFqB-77" value="" style="image;sketch=0;aspect=fixed;html=1;points=[];align=center;fontSize=12;image=img/lib/mscae/Key.svg;" vertex="1" parent="1">
          <mxGeometry x="413.79999999999995" y="490" width="12.4" height="20" as="geometry" />
        </mxCell>
        <mxCell id="4Ya6MQj-gc4yKTbIKFqB-78" style="edgeStyle=orthogonalEdgeStyle;rounded=0;orthogonalLoop=1;jettySize=auto;html=1;exitX=0.5;exitY=1;exitDx=0;exitDy=0;" edge="1" parent="1" source="4Ya6MQj-gc4yKTbIKFqB-74" target="4Ya6MQj-gc4yKTbIKFqB-74">
          <mxGeometry relative="1" as="geometry" />
        </mxCell>
        <mxCell id="4Ya6MQj-gc4yKTbIKFqB-79" value="" style="shape=image;html=1;verticalAlign=top;verticalLabelPosition=bottom;labelBackgroundColor=#ffffff;imageAspect=0;aspect=fixed;image=https://cdn1.iconfinder.com/data/icons/unicons-line-vol-2/24/diamond-128.png" vertex="1" parent="1">
          <mxGeometry x="410" y="530" width="20" height="20" as="geometry" />
        </mxCell>
        <mxCell id="4Ya6MQj-gc4yKTbIKFqB-80" value="" style="shape=image;html=1;verticalAlign=top;verticalLabelPosition=bottom;labelBackgroundColor=#ffffff;imageAspect=0;aspect=fixed;image=https://cdn1.iconfinder.com/data/icons/unicons-line-vol-2/24/diamond-128.png" vertex="1" parent="1">
          <mxGeometry x="410" y="570" width="20" height="20" as="geometry" />
        </mxCell>
        <mxCell id="4Ya6MQj-gc4yKTbIKFqB-81" value="" style="shape=image;html=1;verticalAlign=top;verticalLabelPosition=bottom;labelBackgroundColor=#ffffff;imageAspect=0;aspect=fixed;image=https://cdn1.iconfinder.com/data/icons/unicons-line-vol-2/24/diamond-128.png" vertex="1" parent="1">
          <mxGeometry x="410" y="605" width="20" height="20" as="geometry" />
        </mxCell>
        <mxCell id="4Ya6MQj-gc4yKTbIKFqB-82" value="" style="endArrow=none;html=1;rounded=0;exitX=0.217;exitY=1;exitDx=0;exitDy=0;exitPerimeter=0;" edge="1" parent="1" source="4Ya6MQj-gc4yKTbIKFqB-67">
          <mxGeometry width="50" height="50" relative="1" as="geometry">
            <mxPoint x="390" y="490" as="sourcePoint" />
            <mxPoint x="440" y="480" as="targetPoint" />
          </mxGeometry>
        </mxCell>
        <mxCell id="4Ya6MQj-gc4yKTbIKFqB-83" value="" style="rounded=1;whiteSpace=wrap;html=1;" vertex="1" parent="1">
          <mxGeometry x="689" y="517" width="180" height="120" as="geometry" />
        </mxCell>
        <mxCell id="4Ya6MQj-gc4yKTbIKFqB-84" value="" style="endArrow=none;html=1;rounded=0;entryX=0.998;entryY=0.325;entryDx=0;entryDy=0;entryPerimeter=0;" edge="1" parent="1" target="4Ya6MQj-gc4yKTbIKFqB-83">
          <mxGeometry width="50" height="50" relative="1" as="geometry">
            <mxPoint x="689" y="557" as="sourcePoint" />
            <mxPoint x="739" y="507" as="targetPoint" />
          </mxGeometry>
        </mxCell>
        <mxCell id="4Ya6MQj-gc4yKTbIKFqB-87" value="" style="endArrow=none;html=1;rounded=0;" edge="1" parent="1">
          <mxGeometry width="50" height="50" relative="1" as="geometry">
            <mxPoint x="689" y="597" as="sourcePoint" />
            <mxPoint x="869" y="597" as="targetPoint" />
          </mxGeometry>
        </mxCell>
        <mxCell id="4Ya6MQj-gc4yKTbIKFqB-88" value="crop_fertilizer" style="text;html=1;align=center;verticalAlign=middle;whiteSpace=wrap;rounded=0;" vertex="1" parent="1">
          <mxGeometry x="737" y="523" width="90" height="30" as="geometry" />
        </mxCell>
        <mxCell id="4Ya6MQj-gc4yKTbIKFqB-89" value="crop_id INT" style="text;html=1;align=center;verticalAlign=middle;whiteSpace=wrap;rounded=0;" vertex="1" parent="1">
          <mxGeometry x="732" y="601.5" width="84" height="30" as="geometry" />
        </mxCell>
        <mxCell id="4Ya6MQj-gc4yKTbIKFqB-92" value="fertilizer_id INT" style="text;html=1;align=center;verticalAlign=middle;whiteSpace=wrap;rounded=0;" vertex="1" parent="1">
          <mxGeometry x="709.5" y="562" width="145" height="30" as="geometry" />
        </mxCell>
        <mxCell id="4Ya6MQj-gc4yKTbIKFqB-94" style="edgeStyle=orthogonalEdgeStyle;rounded=0;orthogonalLoop=1;jettySize=auto;html=1;exitX=0.5;exitY=1;exitDx=0;exitDy=0;" edge="1" parent="1">
          <mxGeometry relative="1" as="geometry">
            <mxPoint x="794" y="667" as="sourcePoint" />
            <mxPoint x="794" y="667" as="targetPoint" />
          </mxGeometry>
        </mxCell>
        <mxCell id="4Ya6MQj-gc4yKTbIKFqB-98" value="" style="endArrow=none;html=1;rounded=0;exitX=0.217;exitY=1;exitDx=0;exitDy=0;exitPerimeter=0;" edge="1" parent="1" source="4Ya6MQj-gc4yKTbIKFqB-83">
          <mxGeometry width="50" height="50" relative="1" as="geometry">
            <mxPoint x="679" y="567" as="sourcePoint" />
            <mxPoint x="729" y="557" as="targetPoint" />
          </mxGeometry>
        </mxCell>
        <mxCell id="4Ya6MQj-gc4yKTbIKFqB-117" value="" style="sketch=0;aspect=fixed;pointerEvents=1;shadow=0;dashed=0;html=1;strokeColor=none;labelPosition=center;verticalLabelPosition=bottom;verticalAlign=top;align=center;fillColor=#00188D;shape=mxgraph.mscae.enterprise.key_permissions" vertex="1" parent="1">
          <mxGeometry x="413.8" y="325" width="13" height="25" as="geometry" />
        </mxCell>
        <mxCell id="4Ya6MQj-gc4yKTbIKFqB-118" value="" style="endArrow=none;html=1;rounded=0;" edge="1" parent="1">
          <mxGeometry width="50" height="50" relative="1" as="geometry">
            <mxPoint x="680" y="360" as="sourcePoint" />
            <mxPoint x="870" y="360" as="targetPoint" />
          </mxGeometry>
        </mxCell>
        <mxCell id="4Ya6MQj-gc4yKTbIKFqB-119" value="" style="endArrow=none;html=1;rounded=0;entryX=0.999;entryY=0.859;entryDx=0;entryDy=0;entryPerimeter=0;" edge="1" parent="1" target="4Ya6MQj-gc4yKTbIKFqB-51">
          <mxGeometry width="50" height="50" relative="1" as="geometry">
            <mxPoint x="680" y="400" as="sourcePoint" />
            <mxPoint x="860" y="400" as="targetPoint" />
          </mxGeometry>
        </mxCell>
        <mxCell id="4Ya6MQj-gc4yKTbIKFqB-121" value="" style="sketch=0;aspect=fixed;pointerEvents=1;shadow=0;dashed=0;html=1;strokeColor=none;labelPosition=center;verticalLabelPosition=bottom;verticalAlign=top;align=center;fillColor=#00188D;shape=mxgraph.mscae.enterprise.key_permissions" vertex="1" parent="1">
          <mxGeometry x="693.1999999999999" y="250" width="13" height="25" as="geometry" />
        </mxCell>
        <mxCell id="4Ya6MQj-gc4yKTbIKFqB-122" value="" style="shape=image;html=1;verticalAlign=top;verticalLabelPosition=bottom;labelBackgroundColor=#ffffff;imageAspect=0;aspect=fixed;image=https://cdn1.iconfinder.com/data/icons/unicons-line-vol-2/24/diamond-128.png" vertex="1" parent="1">
          <mxGeometry x="690" y="370" width="20" height="20" as="geometry" />
        </mxCell>
        <mxCell id="4Ya6MQj-gc4yKTbIKFqB-126" value="" style="shape=image;html=1;verticalAlign=top;verticalLabelPosition=bottom;labelBackgroundColor=#ffffff;imageAspect=0;aspect=fixed;image=https://cdn1.iconfinder.com/data/icons/unicons-line-vol-2/24/diamond-128.png" vertex="1" parent="1">
          <mxGeometry x="690" y="410" width="20" height="20" as="geometry" />
        </mxCell>
        <mxCell id="4Ya6MQj-gc4yKTbIKFqB-127" value="planting_date DATE" style="text;html=1;align=center;verticalAlign=middle;whiteSpace=wrap;rounded=0;" vertex="1" parent="1">
          <mxGeometry x="718" y="368" width="140" height="25" as="geometry" />
        </mxCell>
        <mxCell id="4Ya6MQj-gc4yKTbIKFqB-128" value="harvest_date DATE" style="text;html=1;align=center;verticalAlign=middle;whiteSpace=wrap;rounded=0;" vertex="1" parent="1">
          <mxGeometry x="719.5" y="407.5" width="130.5" height="25" as="geometry" />
        </mxCell>
        <mxCell id="4Ya6MQj-gc4yKTbIKFqB-131" value="" style="sketch=0;aspect=fixed;pointerEvents=1;shadow=0;dashed=0;html=1;strokeColor=none;labelPosition=center;verticalLabelPosition=bottom;verticalAlign=top;align=center;fillColor=#00188D;shape=mxgraph.mscae.enterprise.key_permissions" vertex="1" parent="1">
          <mxGeometry x="702.2" y="567" width="13" height="25" as="geometry" />
        </mxCell>
        <mxCell id="4Ya6MQj-gc4yKTbIKFqB-132" value="" style="sketch=0;aspect=fixed;pointerEvents=1;shadow=0;dashed=0;html=1;strokeColor=none;labelPosition=center;verticalLabelPosition=bottom;verticalAlign=top;align=center;fillColor=#00188D;shape=mxgraph.mscae.enterprise.key_permissions" vertex="1" parent="1">
          <mxGeometry x="702.8" y="604.5" width="13" height="25" as="geometry" />
        </mxCell>
        <mxCell id="4Ya6MQj-gc4yKTbIKFqB-133" value="" style="rounded=1;whiteSpace=wrap;html=1;" vertex="1" parent="1">
          <mxGeometry x="120" y="518" width="180" height="120" as="geometry" />
        </mxCell>
        <mxCell id="4Ya6MQj-gc4yKTbIKFqB-134" value="" style="endArrow=none;html=1;rounded=0;entryX=0.998;entryY=0.325;entryDx=0;entryDy=0;entryPerimeter=0;" edge="1" parent="1" target="4Ya6MQj-gc4yKTbIKFqB-133">
          <mxGeometry width="50" height="50" relative="1" as="geometry">
            <mxPoint x="120" y="558" as="sourcePoint" />
            <mxPoint x="170" y="508" as="targetPoint" />
          </mxGeometry>
        </mxCell>
        <mxCell id="4Ya6MQj-gc4yKTbIKFqB-135" value="" style="endArrow=none;html=1;rounded=0;" edge="1" parent="1">
          <mxGeometry width="50" height="50" relative="1" as="geometry">
            <mxPoint x="120" y="598" as="sourcePoint" />
            <mxPoint x="300" y="598" as="targetPoint" />
          </mxGeometry>
        </mxCell>
        <mxCell id="4Ya6MQj-gc4yKTbIKFqB-136" value="crop_fertilizer" style="text;html=1;align=center;verticalAlign=middle;whiteSpace=wrap;rounded=0;" vertex="1" parent="1">
          <mxGeometry x="168" y="524" width="90" height="30" as="geometry" />
        </mxCell>
        <mxCell id="4Ya6MQj-gc4yKTbIKFqB-137" value="fertilizer_id INT" style="text;html=1;align=center;verticalAlign=middle;whiteSpace=wrap;rounded=0;" vertex="1" parent="1">
          <mxGeometry x="170" y="603" width="85" height="30" as="geometry" />
        </mxCell>
        <mxCell id="4Ya6MQj-gc4yKTbIKFqB-138" value="farm_id INT" style="text;html=1;align=center;verticalAlign=middle;whiteSpace=wrap;rounded=0;" vertex="1" parent="1">
          <mxGeometry x="159" y="563" width="90" height="30" as="geometry" />
        </mxCell>
        <mxCell id="4Ya6MQj-gc4yKTbIKFqB-139" value="" style="endArrow=none;html=1;rounded=0;exitX=0.217;exitY=1;exitDx=0;exitDy=0;exitPerimeter=0;" edge="1" parent="1" source="4Ya6MQj-gc4yKTbIKFqB-133">
          <mxGeometry width="50" height="50" relative="1" as="geometry">
            <mxPoint x="110" y="568" as="sourcePoint" />
            <mxPoint x="160" y="558" as="targetPoint" />
          </mxGeometry>
        </mxCell>
        <mxCell id="4Ya6MQj-gc4yKTbIKFqB-140" value="" style="sketch=0;aspect=fixed;pointerEvents=1;shadow=0;dashed=0;html=1;strokeColor=none;labelPosition=center;verticalLabelPosition=bottom;verticalAlign=top;align=center;fillColor=#00188D;shape=mxgraph.mscae.enterprise.key_permissions" vertex="1" parent="1">
          <mxGeometry x="133.20000000000005" y="568" width="13" height="25" as="geometry" />
        </mxCell>
        <mxCell id="4Ya6MQj-gc4yKTbIKFqB-141" value="" style="sketch=0;aspect=fixed;pointerEvents=1;shadow=0;dashed=0;html=1;strokeColor=none;labelPosition=center;verticalLabelPosition=bottom;verticalAlign=top;align=center;fillColor=#00188D;shape=mxgraph.mscae.enterprise.key_permissions" vertex="1" parent="1">
          <mxGeometry x="133.79999999999995" y="605.5" width="13" height="25" as="geometry" />
        </mxCell>
        <mxCell id="4Ya6MQj-gc4yKTbIKFqB-142" value="" style="edgeStyle=entityRelationEdgeStyle;fontSize=12;html=1;endArrow=ERzeroToMany;endFill=1;startArrow=ERzeroToMany;rounded=0;exitX=1;exitY=0.5;exitDx=0;exitDy=0;" edge="1" parent="1" source="4Ya6MQj-gc4yKTbIKFqB-133">
          <mxGeometry width="100" height="100" relative="1" as="geometry">
            <mxPoint x="299" y="623" as="sourcePoint" />
            <mxPoint x="399" y="523" as="targetPoint" />
            <Array as="points">
              <mxPoint x="239" y="603" />
              <mxPoint x="279" y="573" />
            </Array>
          </mxGeometry>
        </mxCell>
        <mxCell id="4Ya6MQj-gc4yKTbIKFqB-143" value="" style="edgeStyle=entityRelationEdgeStyle;fontSize=12;html=1;endArrow=ERzeroToMany;endFill=1;startArrow=ERzeroToMany;rounded=0;" edge="1" parent="1">
          <mxGeometry width="100" height="100" relative="1" as="geometry">
            <mxPoint x="580" y="520" as="sourcePoint" />
            <mxPoint x="689" y="578" as="targetPoint" />
            <Array as="points">
              <mxPoint x="529" y="658" />
              <mxPoint x="569" y="628" />
            </Array>
          </mxGeometry>
        </mxCell>
        <mxCell id="4Ya6MQj-gc4yKTbIKFqB-145" value="" style="edgeStyle=orthogonalEdgeStyle;fontSize=12;html=1;endArrow=ERzeroToMany;endFill=1;startArrow=ERzeroToMany;rounded=0;exitX=0.53;exitY=0;exitDx=0;exitDy=0;exitPerimeter=0;" edge="1" parent="1" source="4Ya6MQj-gc4yKTbIKFqB-83">
          <mxGeometry width="100" height="100" relative="1" as="geometry">
            <mxPoint x="784" y="520" as="sourcePoint" />
            <mxPoint x="784.16" y="440" as="targetPoint" />
            <Array as="points" />
          </mxGeometry>
        </mxCell>
        <mxCell id="4Ya6MQj-gc4yKTbIKFqB-146" value="" style="edgeStyle=entityRelationEdgeStyle;fontSize=12;html=1;endArrow=ERoneToMany;startArrow=ERzeroToOne;rounded=0;" edge="1" parent="1">
          <mxGeometry width="100" height="100" relative="1" as="geometry">
            <mxPoint x="301" y="346" as="sourcePoint" />
            <mxPoint x="399" y="260" as="targetPoint" />
            <Array as="points">
              <mxPoint x="189" y="280" />
            </Array>
          </mxGeometry>
        </mxCell>
        <mxCell id="4Ya6MQj-gc4yKTbIKFqB-147" value="" style="edgeStyle=orthogonalEdgeStyle;fontSize=12;html=1;endArrow=ERzeroToMany;endFill=1;startArrow=ERzeroToMany;rounded=0;" edge="1" parent="1">
          <mxGeometry width="100" height="100" relative="1" as="geometry">
            <mxPoint x="213.41" y="517.5" as="sourcePoint" />
            <mxPoint x="212.41" y="437.5" as="targetPoint" />
            <Array as="points">
              <mxPoint x="213.41" y="467.5" />
            </Array>
          </mxGeometry>
        </mxCell>
        <mxCell id="4Ya6MQj-gc4yKTbIKFqB-148" value="" style="edgeStyle=entityRelationEdgeStyle;fontSize=12;html=1;endArrow=ERoneToMany;startArrow=ERzeroToOne;rounded=0;exitX=1;exitY=0.5;exitDx=0;exitDy=0;" edge="1" parent="1" source="4Ya6MQj-gc4yKTbIKFqB-18">
          <mxGeometry width="100" height="100" relative="1" as="geometry">
            <mxPoint x="582" y="416" as="sourcePoint" />
            <mxPoint x="680" y="330" as="targetPoint" />
            <Array as="points">
              <mxPoint x="470" y="350" />
              <mxPoint x="861" y="370" />
            </Array>
          </mxGeometry>
        </mxCell>
      </root>
    </mxGraphModel>
  </diagram>
</mxfile>
